<svg width="297" height="210" xmlns="http://www.w3.org/2000/svg">
 <!-- Created with SVG-edit - http://svg-edit.googlecode.com/ -->
 <g>
  <title>Layer 1</title>
  <line fill="none" stroke="#000000" stroke-width="5" stroke-linejoin="null" stroke-linecap="null" x1="13.5" y1="30" x2="13.5" y2="180" id="svg_66"/>
  <line fill="none" stroke="#000000" stroke-width="5" stroke-linejoin="null" stroke-linecap="null" x1="13.5" y1="30" x2="23.5" y2="30" id="svg_67"/>
  <line fill="none" stroke="#000000" stroke-width="5" stroke-linejoin="null" stroke-linecap="null" x1="23.5" y1="30" x2="23.5" y2="100" id="svg_68"/>
  <line fill="none" stroke="#000000" stroke-width="5" stroke-linejoin="null" stroke-linecap="null" x1="23.5" y1="100" x2="63.5" y2="30" id="svg_70"/>
  <line fill="none" stroke="#000000" stroke-width="5" stroke-linejoin="null" stroke-linecap="null" x1="63.5" y1="30" x2="73.5" y2="30" id="svg_71"/>
  <line fill="none" stroke="#000000" stroke-width="5" stroke-linejoin="null" stroke-linecap="null" x1="73.5" y1="30" x2="31.5" y2="105" id="svg_72"/>
  <line fill="none" stroke="#000000" stroke-width="5" stroke-linejoin="null" stroke-linecap="null" x1="13.5" y1="180" x2="23.5" y2="180" id="svg_73"/>
  <line fill="none" stroke="#000000" stroke-width="5" stroke-linejoin="null" stroke-linecap="null" x1="23.5" y1="180" x2="23.5" y2="110" id="svg_74"/>
  <line fill="none" stroke="#000000" stroke-width="5" stroke-linejoin="null" stroke-linecap="null" x1="23.5" y1="110" x2="61.5" y2="180" id="svg_75"/>
  <line fill="none" stroke="#000000" stroke-width="5" stroke-linejoin="null" stroke-linecap="null" x1="31.5" y1="105" x2="73.5" y2="180" id="svg_76"/>
  <line fill="none" stroke="#000000" stroke-width="5" stroke-linejoin="null" stroke-linecap="null" x1="61.5" y1="180" x2="73.5" y2="180" id="svg_77"/>
  <line fill="none" stroke="#000000" stroke-width="5" stroke-linejoin="null" stroke-linecap="null" x1="156.5" y1="30" x2="156.5" y2="180" id="svg_78"/>
  <line fill="none" stroke="#000000" stroke-width="5" stroke-linejoin="null" stroke-linecap="null" x1="156.5" y1="30" x2="166.5" y2="30" id="svg_79"/>
  <line fill="none" stroke="#000000" stroke-width="5" stroke-linejoin="null" stroke-linecap="null" x1="166.5" y1="30" x2="166.5" y2="100" id="svg_80"/>
  <line fill="none" stroke="#000000" stroke-width="5" stroke-linejoin="null" stroke-linecap="null" x1="166.5" y1="100" x2="206.5" y2="30" id="svg_81"/>
  <line fill="none" stroke="#000000" stroke-width="5" stroke-linejoin="null" stroke-linecap="null" x1="206.5" y1="30" x2="216.5" y2="30" id="svg_82"/>
  <line fill="none" stroke="#000000" stroke-width="5" stroke-linejoin="null" stroke-linecap="null" x1="216.5" y1="30" x2="174.5" y2="105" id="svg_83"/>
  <line fill="none" stroke="#000000" stroke-width="5" stroke-linejoin="null" stroke-linecap="null" x1="156.5" y1="180" x2="166.5" y2="180" id="svg_84"/>
  <line fill="none" stroke="#000000" stroke-width="5" stroke-linejoin="null" stroke-linecap="null" x1="166.5" y1="180" x2="166.5" y2="110" id="svg_85"/>
  <line fill="none" stroke="#000000" stroke-width="5" stroke-linejoin="null" stroke-linecap="null" x1="166.5" y1="110" x2="204.5" y2="180" id="svg_86"/>
  <line fill="none" stroke="#000000" stroke-width="5" stroke-linejoin="null" stroke-linecap="null" x1="174.5" y1="105" x2="216.5" y2="180" id="svg_87"/>
  <line fill="none" stroke="#000000" stroke-width="5" stroke-linejoin="null" stroke-linecap="null" x1="204.5" y1="180" x2="216.5" y2="180" id="svg_88"/>
  <line fill="none" stroke="#000000" stroke-width="5" stroke-linejoin="null" stroke-linecap="null" x1="83.5" y1="30" x2="83.5" y2="180" id="svg_89"/>
  <line fill="none" stroke="#000000" stroke-width="5" stroke-linejoin="null" stroke-linecap="null" x1="83.5" y1="180" x2="143.5" y2="180" id="svg_90"/>
  <line fill="none" stroke="#000000" stroke-width="5" stroke-linejoin="null" stroke-linecap="null" x1="143.5" y1="180" x2="143.5" y2="30" id="svg_91"/>
  <line fill="none" stroke="#000000" stroke-width="5" stroke-linejoin="null" stroke-linecap="null" x1="83.5" y1="30" x2="93.5" y2="30" id="svg_92"/>
  <line fill="none" stroke="#000000" stroke-width="5" stroke-linejoin="null" stroke-linecap="null" x1="93.5" y1="30" x2="93.5" y2="170" id="svg_93"/>
  <line fill="none" stroke="#000000" stroke-width="5" stroke-linejoin="null" stroke-linecap="null" x1="93.5" y1="170" x2="133.5" y2="170" id="svg_94"/>
  <line fill="none" stroke="#000000" stroke-width="5" stroke-linejoin="null" stroke-linecap="null" x1="133.5" y1="170" x2="133.5" y2="30" id="svg_95"/>
  <line fill="none" stroke="#000000" stroke-width="5" stroke-linejoin="null" stroke-linecap="null" x1="133.5" y1="30" x2="143.5" y2="30" id="svg_96"/>
  <line fill="none" stroke="#000000" stroke-width="5" stroke-linejoin="null" stroke-linecap="null" x1="228.5" y1="180" x2="253.5" y2="30" id="svg_97"/>
  <line fill="none" stroke="#000000" stroke-width="5" stroke-linejoin="null" stroke-linecap="null" x1="253.5" y1="30" x2="263.5" y2="30" id="svg_98"/>
  <line fill="none" stroke="#000000" stroke-width="5" stroke-linejoin="null" stroke-linecap="null" x1="263.5" y1="30" x2="286" y2="180" id="svg_99"/>
  <line fill="none" stroke="#000000" stroke-width="5" stroke-linejoin="null" stroke-linecap="null" x1="228" y1="180" x2="238.5" y2="180" id="svg_100"/>
  <line fill="none" stroke="#000000" stroke-width="5" stroke-linejoin="null" stroke-linecap="null" x1="286.5" y1="180" x2="276.5" y2="180" id="svg_101"/>
  <line fill="none" stroke="#000000" stroke-width="5" stroke-linejoin="null" stroke-linecap="null" x1="238" y1="180" x2="249.5" y2="114" id="svg_102"/>
  <line fill="none" stroke="#000000" stroke-width="5" stroke-linejoin="null" stroke-linecap="null" x1="249.5" y1="114" x2="265.5" y2="114" id="svg_103"/>
  <line fill="none" stroke="#000000" stroke-width="5" stroke-linejoin="null" stroke-linecap="null" x1="276.5" y1="180" x2="265.5" y2="114" id="svg_104"/>
  <line fill="none" stroke="#000000" stroke-width="5" stroke-linejoin="null" stroke-linecap="null" x1="257.5" y1="65" x2="251.5" y2="104.5" id="svg_105"/>
  <line fill="none" stroke="#000000" stroke-width="5" stroke-linejoin="null" stroke-linecap="null" x1="251.5" y1="104.5" x2="263.5" y2="104.5" id="svg_106"/>
  <line fill="none" stroke="#000000" stroke-width="5" stroke-linejoin="null" stroke-linecap="null" x1="257.5" y1="65" x2="263.5" y2="105" id="svg_107"/>
 </g>
</svg>